<?xml version="1.0" encoding="UTF-8" standalone="no"?>
<svg
   width="116.03069"
   height="70"
   viewBox="0 0 116.03068 70"
   fill="none"
   version="1.1"
   id="svg1"
   sodipodi:docname="next-js-seeklogo.com 2.svg"
   inkscape:version="1.3 (0e150ed6c4, 2023-07-21)"
   xmlns:inkscape="http://www.inkscape.org/namespaces/inkscape"
   xmlns:sodipodi="http://sodipodi.sourceforge.net/DTD/sodipodi-0.dtd"
   xmlns="http://www.w3.org/2000/svg"
   xmlns:svg="http://www.w3.org/2000/svg">
  <sodipodi:namedview
     id="namedview1"
     pagecolor="#ffffff"
     bordercolor="#000000"
     borderopacity="0.25"
     inkscape:showpageshadow="2"
     inkscape:pageopacity="0.0"
     inkscape:pagecheckerboard="0"
     inkscape:deskcolor="#d1d1d1"
     inkscape:zoom="5.3884945"
     inkscape:cx="23.661526"
     inkscape:cy="60.220903"
     inkscape:window-width="1920"
     inkscape:window-height="1051"
     inkscape:window-x="-9"
     inkscape:window-y="-9"
     inkscape:window-maximized="1"
     inkscape:current-layer="svg1" />
  <g
     clip-path="url(#clip0_133762_5)"
     id="g1"
     transform="scale(1.4005266)">
    <path
       d="m 19.5486,13.0358 h 15.6259 v 1.242 H 20.981 v 9.3474 h 13.3471 v 1.242 H 20.981 v 10.2625 h 14.3563 v 1.242 H 19.5486 Z m 17.0257,0 h 1.6603 l 7.3571,10.2626 7.52,-10.2626 L 63.34,0 46.5358,24.3769 55.1951,36.3717 H 53.4698 L 45.5917,25.4555 37.6811,36.3717 h -1.6928 l 8.7245,-11.9948 z m 19.2394,1.242 v -1.242 h 17.8069 v 1.242 H 65.4171 V 36.3717 H 63.9847 V 14.2778 Z M 0,13.0358 H 1.79046 L 26.4799,49.9812 16.277,36.3717 1.49748,14.8007 1.43237,36.3717 H 0 Z m 73.4763,21.7191 c -0.2926,0 -0.5121,-0.2267 -0.5121,-0.5197 0,-0.2931 0.2195,-0.5198 0.5121,-0.5198 0.2962,0 0.5122,0.2267 0.5122,0.5198 0,0.293 -0.216,0.5197 -0.5122,0.5197 z m 1.4075,-1.3674 h 0.7664 c 0.0105,0.4151 0.3136,0.6942 0.7595,0.6942 0.4982,0 0.7804,-0.3 0.7804,-0.8617 v -3.5581 h 0.7804 v 3.5616 c 0,1.0117 -0.5853,1.5942 -1.5538,1.5942 -0.9093,0 -1.5329,-0.5651 -1.5329,-1.4302 z m 4.1075,-0.0454 h 0.7734 c 0.0662,0.4779 0.533,0.7814 1.2054,0.7814 0.6271,0 1.087,-0.3244 1.087,-0.7709 0,-0.3837 -0.2927,-0.614 -0.9581,-0.7709 l -0.648,-0.157 c -0.9093,-0.2128 -1.3239,-0.6523 -1.3239,-1.3919 0,-0.8965 0.7316,-1.493 1.8291,-1.493 1.0207,0 1.7663,0.5965 1.8116,1.4442 h -0.7595 c -0.0732,-0.464 -0.4773,-0.7535 -1.0626,-0.7535 -0.6166,0 -1.0277,0.2965 -1.0277,0.75 0,0.3593 0.2647,0.5651 0.9197,0.7186 l 0.5539,0.136 c 1.0313,0.2407 1.4563,0.6594 1.4563,1.4163 0,0.9628 -0.7456,1.5663 -1.937,1.5663 -1.1149,0 -1.8639,-0.5756 -1.9196,-1.4756 z"
       fill="#ffffff"
       id="path1" />
  </g>
  <defs
     id="defs1">
    <clipPath
       id="clip0_133762_5">
      <rect
         width="82.8479"
         height="50"
         fill="#ffffff"
         id="rect1"
         x="0"
         y="0" />
    </clipPath>
  </defs>
</svg>
