<svg width="17" height="17" viewBox="0 0 31 30" fill="none" xmlns="http://www.w3.org/2000/svg">
<path fill-rule="evenodd" clip-rule="evenodd" d="M15.3782 0C6.88658 0 0 6.88566 0 15.3801C0 22.1742 4.40633 27.9391 10.5177 29.9738C11.2872 30.1144 11.5676 29.6394 11.5676 29.2317C11.5676 28.8663 11.5544 27.8995 11.5469 26.6164C7.26897 27.5455 6.36636 24.5544 6.36636 24.5544C5.66674 22.7775 4.65841 22.3044 4.65841 22.3044C3.26201 21.3508 4.76415 21.3698 4.76415 21.3698C6.30783 21.4783 7.11978 22.9549 7.11978 22.9549C8.49162 25.3049 10.7198 24.6261 11.596 24.2325C11.7357 23.2392 12.1332 22.5613 12.5722 22.1769C9.15724 21.7879 5.56667 20.4691 5.56667 14.5757C5.56667 12.8961 6.16619 11.5242 7.15 10.4489C6.9914 10.0599 6.46361 8.49636 7.30107 6.37864C7.30107 6.37864 8.59169 5.9651 11.5299 7.95439C12.7563 7.61357 14.0724 7.44363 15.3801 7.43701C16.6868 7.44363 18.002 7.61357 19.2303 7.95439C22.1666 5.9651 23.4552 6.37864 23.4552 6.37864C24.2948 8.49636 23.767 10.0599 23.6093 10.4489C24.595 11.5242 25.1898 12.8961 25.1898 14.5757C25.1898 20.4842 21.5935 21.7842 18.1681 22.1647C18.7195 22.6397 19.2114 23.5782 19.2114 25.0133C19.2114 27.0686 19.1925 28.7275 19.1925 29.2317C19.1925 29.6433 19.4701 30.1221 20.25 29.9717C26.3568 27.9335 30.7593 22.1732 30.7593 15.3801C30.7593 6.88566 23.8727 0 15.3782 0Z" fill="white"/>
</svg>
