<svg width="25" height="25" viewBox="0 0 25 25" fill="none" xmlns="http://www.w3.org/2000/svg">
<g clip-path="url(#clip0_133824_2)">
<path d="M25 0H0V25H25V0Z" fill="#F1DC50"/>
<path d="M12.5 11.4583C12.5 16.4053 12.5 19.1831 12.5 19.7916C12.5 20.7043 11.9553 21.8749 10.4167 21.8749C7.93189 21.8749 7.8125 19.7916 7.8125 19.7916M21.6562 14.0791C21.0311 13.0263 20.2025 12.4999 19.1704 12.4999C17.5587 12.4999 16.6667 13.5416 16.6667 14.5833C16.6667 15.6249 17.1875 16.6666 19.2796 17.1874C20.6109 17.5188 21.875 18.2291 21.875 19.7916C21.875 21.3541 20.5047 21.8749 19.2708 21.8749C17.6939 21.8749 16.6523 21.1805 16.1458 19.7916" stroke="white" stroke-width="2.08333"/>
</g>
<defs>
<clipPath id="clip0_133824_2">
<rect width="25" height="25" fill="white"/>
</clipPath>
</defs>
</svg>
