<svg width="447" height="300" viewBox="0 0 447 387" fill="none" xmlns="http://www.w3.org/2000/svg">
<path d="M447 187.583C447 228.454 435.364 265.214 412.092 297.862C388.82 330.51 358.756 353.103 321.902 365.641C317.613 366.455 314.476 365.885 312.49 363.931C310.504 361.977 309.512 359.535 309.512 356.604V305.067C309.512 289.272 305.381 277.711 297.121 270.384C306.176 269.407 314.317 267.941 321.545 265.987C328.773 264.033 336.239 260.858 343.943 256.462C351.648 252.065 358.081 246.651 363.244 240.219C368.407 233.787 372.616 225.238 375.873 214.573C379.129 203.907 380.758 191.654 380.758 177.813C380.758 158.111 374.483 141.339 361.933 127.498C367.811 112.68 367.176 96.0715 360.027 77.6714C355.579 76.2059 349.146 77.1014 340.726 80.3581C332.307 83.6148 325 87.1971 318.805 91.1051L309.75 96.967C294.976 92.7334 279.726 90.6166 264 90.6166C248.273 90.6166 233.023 92.7334 218.25 96.967C215.708 95.1759 212.333 92.9776 208.123 90.3723C203.913 87.767 197.281 84.6325 188.226 80.9687C179.172 77.305 172.341 76.2059 167.734 77.6714C160.745 96.0715 160.189 112.68 166.066 127.498C153.517 141.339 147.242 158.111 147.242 177.813C147.242 191.654 148.87 203.867 152.127 214.451C155.383 225.035 159.553 233.584 164.637 240.097C169.72 246.61 176.114 252.065 183.818 256.462C191.523 260.858 198.989 264.033 206.217 265.987C213.445 267.941 221.586 269.407 230.641 270.384C224.286 276.246 220.394 284.632 218.965 295.541C215.629 297.17 212.055 298.391 208.242 299.205C204.43 300.019 199.902 300.426 194.66 300.426C189.418 300.426 184.215 298.676 179.053 295.175C173.89 291.674 169.482 286.586 165.828 279.91C162.81 274.699 158.958 270.465 154.271 267.209C149.585 263.952 145.654 261.998 142.476 261.347L137.711 260.614C134.375 260.614 132.072 260.98 130.801 261.713C129.53 262.446 129.133 263.382 129.609 264.522C130.086 265.662 130.801 266.802 131.754 267.941C132.707 269.081 133.739 270.058 134.851 270.872L136.519 272.094C140.014 273.722 143.469 276.816 146.885 281.375C150.3 285.934 152.802 290.087 154.391 293.832L156.773 299.449C158.838 305.637 162.333 310.644 167.258 314.471C172.182 318.297 177.504 320.74 183.223 321.798C188.941 322.857 194.461 323.427 199.783 323.508C205.105 323.589 209.513 323.304 213.008 322.653L218.488 321.676C218.488 327.864 218.528 335.11 218.607 343.414C218.687 351.719 218.726 356.115 218.726 356.604C218.726 359.535 217.694 361.977 215.629 363.931C213.564 365.885 210.387 366.455 206.098 365.641C169.243 353.103 139.18 330.51 115.908 297.862C92.636 265.214 80.9999 228.454 80.9999 187.583C80.9999 153.551 89.1809 122.165 105.543 93.4254C121.905 64.6855 144.105 41.9296 172.142 25.1578C200.18 8.38607 230.799 0.000183105 264 0.000183105C297.2 0.000183105 327.82 8.38607 355.857 25.1578C383.895 41.9296 406.095 64.6855 422.457 93.4254C438.819 122.165 447 153.551 447 187.583Z" fill="#737384"/>
<path d="M70.3107 353.447C47.4554 353.447 28.8633 334.855 28.8633 312C28.8633 289.145 47.4554 270.553 70.3107 270.553C93.166 270.553 111.758 289.145 111.758 312C111.758 334.855 93.166 353.447 70.3107 353.447ZM70.3107 294.237C60.5173 294.237 52.5475 302.207 52.5475 312C52.5475 321.793 60.5173 329.763 70.3107 329.763C80.1041 329.763 88.0738 321.793 88.0738 312C88.0738 302.207 80.1041 294.237 70.3107 294.237Z" fill="#737384"/>
<path d="M70.3107 272.526C92.0765 272.526 109.784 290.234 109.784 312C109.784 333.766 92.0765 351.474 70.3107 351.474C48.5449 351.474 30.837 333.766 30.837 312C30.837 290.234 48.5449 272.526 70.3107 272.526ZM70.3107 331.737C81.1936 331.737 90.0475 322.883 90.0475 312C90.0475 301.117 81.1936 292.263 70.3107 292.263C59.4278 292.263 50.5739 301.117 50.5739 312C50.5739 322.883 59.4278 331.737 70.3107 331.737ZM70.3107 268.579C46.3304 268.579 26.8896 288.02 26.8896 312C26.8896 335.98 46.3304 355.421 70.3107 355.421C94.291 355.421 113.732 335.98 113.732 312C113.732 288.02 94.291 268.579 70.3107 268.579ZM70.3107 327.79C61.591 327.79 54.5212 320.72 54.5212 312C54.5212 303.28 61.591 296.211 70.3107 296.211C79.0304 296.211 86.1002 303.28 86.1002 312C86.1002 320.72 79.0304 327.79 70.3107 327.79Z" fill="#3B3B48"/>
<path d="M61.1369 385.026L56.6961 367.259L55.575 366.959C45.8724 364.362 37.0382 359.277 30.0237 352.259L29.2027 351.438L11.6566 356.455L2.48292 340.567L15.6474 327.837L15.3474 326.716C14.025 321.769 13.354 316.816 13.354 312C13.354 307.184 14.025 302.23 15.3434 297.28L15.6434 296.159L2.47897 283.429L11.6527 267.541L29.1987 272.558L30.0198 271.737C37.0382 264.714 45.8724 259.634 55.5711 257.037L56.6921 256.737L61.1369 238.973H79.4803L83.9211 256.741L85.0421 257.041C94.7408 259.634 103.575 264.718 110.593 271.741L111.415 272.562L128.961 267.544L138.134 283.433L124.97 296.163L125.27 297.284C126.592 302.23 127.263 307.18 127.263 312C127.263 316.816 126.592 321.769 125.274 326.719L124.974 327.841L138.138 340.567L128.965 356.459L111.418 351.438L110.597 352.259C103.583 359.281 94.7448 364.362 85.0461 366.959L83.925 367.259L79.4842 385.026H61.1369ZM70.3106 280.563C52.9737 280.563 38.8737 294.667 38.8737 312C38.8737 329.333 52.9777 343.437 70.3106 343.437C87.6435 343.437 101.747 329.333 101.747 312C101.747 294.667 87.6474 280.563 70.3106 280.563Z" fill="#737384"/>
<path d="M77.941 240.947L81.7265 256.093L82.291 258.347L84.537 258.947C93.9002 261.454 102.427 266.36 109.2 273.134L110.842 274.78L113.077 274.141L128.025 269.866L135.659 283.085L124.437 293.937L122.767 295.551L123.367 297.793C124.646 302.573 125.294 307.354 125.294 312C125.294 316.646 124.646 321.426 123.367 326.206L122.767 328.448L124.437 330.063L135.659 340.914L128.025 354.134L113.077 349.859L110.842 349.22L109.2 350.866C102.43 357.639 93.9002 362.546 84.537 365.052L82.291 365.652L81.7265 367.906L77.9449 383.052H62.6805L58.8949 367.906L58.3305 365.652L56.0844 365.052C46.7213 362.546 38.191 357.639 31.4213 350.866L29.7792 349.22L27.545 349.859L12.5963 354.134L4.96206 340.914L16.1844 330.063L17.8542 328.448L17.2542 326.206C15.9752 321.426 15.3278 316.646 15.3278 312C15.3278 307.354 15.9752 302.573 17.2542 297.793L17.8542 295.551L16.1844 293.937L4.96206 283.085L12.5963 269.866L27.545 274.141L29.7792 274.78L31.4213 273.134C38.191 266.36 46.7213 261.454 56.0844 258.947L58.3305 258.347L58.8949 256.093L62.6765 240.947H77.941ZM70.3107 345.41C88.7331 345.41 103.721 330.422 103.721 312C103.721 293.577 88.7331 278.589 70.3107 278.589C51.8884 278.589 36.9002 293.577 36.9002 312C36.9002 330.422 51.8884 345.41 70.3107 345.41ZM81.0239 237H59.5936L55.0581 255.134C44.9173 257.85 35.8305 263.135 28.6265 270.343L10.7173 265.219L0.00416071 283.776L13.4449 296.771C12.1423 301.638 11.3805 306.726 11.3805 312C11.3805 317.273 12.1384 322.362 13.441 327.225L0.000213623 340.22L10.7134 358.776L28.6265 353.652C35.8305 360.86 44.9213 366.146 55.062 368.862L59.5976 387H81.0278L85.5594 368.866C95.7002 366.15 104.791 360.864 111.995 353.656L129.908 358.78L140.621 340.223L127.18 327.229C128.479 322.366 129.241 317.277 129.241 312.004C129.241 306.73 128.483 301.642 127.18 296.779L140.621 283.784L129.908 265.227L111.995 270.351C104.791 263.143 95.7042 257.858 85.5634 255.142L81.0239 237ZM70.3107 341.463C54.0397 341.463 40.8476 328.271 40.8476 312C40.8476 295.729 54.0397 282.537 70.3107 282.537C86.5818 282.537 99.7739 295.729 99.7739 312C99.7739 328.271 86.5818 341.463 70.3107 341.463Z" fill="#3B3B48"/>
</svg>
