<?xml version="1.0" encoding="UTF-8" standalone="no"?>
<svg
   width="80.769218"
   height="70"
   viewBox="0 0 80.769218 70"
   fill="none"
   version="1.1"
   id="svg2"
   sodipodi:docname="react-svgrepo-com (1) 2.svg"
   inkscape:version="1.3 (0e150ed6c4, 2023-07-21)"
   xmlns:inkscape="http://www.inkscape.org/namespaces/inkscape"
   xmlns:sodipodi="http://sodipodi.sourceforge.net/DTD/sodipodi-0.dtd"
   xmlns="http://www.w3.org/2000/svg"
   xmlns:svg="http://www.w3.org/2000/svg">
  <sodipodi:namedview
     id="namedview2"
     pagecolor="#ffffff"
     bordercolor="#000000"
     borderopacity="0.25"
     inkscape:showpageshadow="2"
     inkscape:pageopacity="0.0"
     inkscape:pagecheckerboard="0"
     inkscape:deskcolor="#d1d1d1"
     inkscape:zoom="5.9184838"
     inkscape:cx="82.031145"
     inkscape:cy="40.297483"
     inkscape:window-width="1920"
     inkscape:window-height="1051"
     inkscape:window-x="-9"
     inkscape:window-y="-9"
     inkscape:window-maximized="1"
     inkscape:current-layer="svg2" />
  <g
     clip-path="url(#clip0_133762_8)"
     id="g2"
     transform="scale(1.4)">
    <path
       d="m 33.9979,24.9536 c 0,-2.7584 -2.3064,-4.995 -5.1518,-4.995 -2.845,0 -5.1517,2.2366 -5.1517,4.995 0,2.7589 2.3067,4.9952 5.1517,4.9952 2.8454,0 5.1518,-2.2363 5.1518,-4.9952 z"
       fill="#149eca"
       id="path1" />
    <path
       fill-rule="evenodd"
       clip-rule="evenodd"
       d="M 45.5777,15.6802 C 46.6656,11.3938 48.0331,3.44515 43.2123,0.750305 38.414,-1.93279 32.17,3.20852 28.8729,6.29457 25.5854,3.23927 19.166,-1.88006 14.3493,0.823344 9.5529,3.51544 11.032,11.3323 12.144,15.6456 7.66983,16.8777 0,19.5315 0,24.9537 c 0,5.4067 7.66185,8.294 12.1096,9.525 -1.1162,4.3371 -2.52122,12.0423 2.2813,14.7284 4.8347,2.7029 11.2341,-2.2946 14.5618,-5.4144 3.3183,3.1042 9.5023,8.1344 14.3015,5.4408 4.8143,-2.7022 3.5604,-10.5443 2.4483,-14.8825 4.3115,-1.2337 11.9898,-4.0581 11.9898,-9.3973 0,-5.37 -7.711,-8.0454 -12.1146,-9.2735 z m -0.5465,16.3717 c -0.7302,-2.2411 -1.7158,-4.6244 -2.9214,-7.0863 1.1508,-2.4039 2.0981,-4.7564 2.8079,-6.9831 3.2283,0.9075 10.3102,2.9815 10.3102,6.9712 0,4.0271 -6.796,6.1207 -10.1967,7.0982 z m -3.012,15.1135 c -3.5807,2.0096 -8.8998,-2.8008 -11.3504,-5.0867 1.6258,-1.7241 3.2504,-3.7283 4.836,-5.9539 2.7892,-0.2398 5.424,-0.6321 7.8137,-1.1677 0.7827,3.0687 2.2973,10.1896 -1.2993,12.2083 z M 15.6223,47.1367 C 12.0412,45.1346 13.678,38.2588 14.4992,35.064 c 2.363,0.507 4.9789,0.8716 7.7746,1.0914 1.596,2.1777 3.2677,4.1794 4.9524,5.9325 -2.0814,1.9521 -8.006,7.0602 -11.6039,5.0488 z M 2.4644,24.9537 c 0,-4.0422 7.03958,-6.1012 10.3414,-7.0064 0.7221,2.2767 1.6691,4.6573 2.8119,7.0646 -1.1576,2.4431 -2.1181,4.8614 -2.8468,7.165 C 9.62248,31.3031 2.4644,28.9983 2.4644,24.9537 Z M 15.584,2.89142 c 3.5958,-2.018038 9.175,2.89671 11.562,5.10883 -1.676,1.74502 -3.3323,3.73165 -4.9147,5.89685 -2.7132,0.2439 -5.3106,0.6354 -7.6984,1.16 C 13.637,11.5783 11.9922,4.90729 15.584,2.89142 Z M 37.2679,16.4944 c 1.8408,0.2252 3.6044,0.5248 5.2604,0.8914 -0.4971,1.545 -1.1168,3.1605 -1.8466,4.8167 -1.0579,-1.9462 -2.1934,-3.8533 -3.4138,-5.7081 z M 28.8737,9.70788 c 1.1367,1.19402 2.2751,2.52732 3.3951,3.97382 -2.2717,-0.1042 -4.5471,-0.1046 -6.8188,-0.0015 1.121,-1.4331 2.2692,-2.7645 3.4237,-3.97232 z M 17.0317,22.2008 C 16.314,20.5504 15.7,18.9277 15.1985,17.3606 16.8446,17.0035 18.6,16.7115 20.4288,16.49 c -1.2238,1.8508 -2.3575,3.7571 -3.3971,5.7108 z m 3.4496,11.3871 c -1.8892,-0.2044 -3.6712,-0.4816 -5.3168,-0.8289 0.5094,-1.5946 1.137,-3.2523 1.87,-4.9382 1.054,1.974 2.2049,3.8988 3.4468,5.7671 z m 8.4606,6.7804 c -1.1681,-1.2221 -2.3332,-2.5739 -3.4711,-4.0277 2.2846,0.0869 4.5736,0.0871 6.858,-0.0118 -1.1234,1.4804 -2.2578,2.8341 -3.3869,4.0395 z M 40.7052,27.735 c 0.7711,1.7042 1.4211,3.3529 1.9375,4.9206 -1.6729,0.3702 -3.4789,0.6682 -5.3817,0.8896 1.2294,-1.89 2.383,-3.8267 3.4442,-5.8102 z m -6.5758,6.0998 c -3.4946,0.2421 -7.0109,0.2394 -10.5067,0.0198 -1.9864,-2.8133 -3.7546,-5.7719 -5.281,-8.8434 1.5191,-3.0652 3.2745,-6.0181 5.2514,-8.827 3.4982,-0.2563 7.0181,-0.2571 10.5163,0.0016 1.96,2.8086 3.7127,5.7538 5.2669,8.7913 -1.5357,3.0637 -3.3003,6.0225 -5.2469,8.8577 z M 41.9813,2.82038 c 3.5968,2.01143 1.9958,9.15512 1.21,12.26152 -2.3934,-0.5356 -4.9926,-0.934 -7.7138,-1.1817 C 33.8921,11.7116 32.2496,9.7215 30.6008,7.99902 33.0183,5.73925 38.4194,0.828632 41.9813,2.82038 Z"
       fill="#149eca"
       id="path2" />
  </g>
  <defs
     id="defs2">
    <clipPath
       id="clip0_133762_8">
      <rect
         width="57.692299"
         height="50"
         fill="#ffffff"
         id="rect2"
         x="0"
         y="0" />
    </clipPath>
  </defs>
</svg>
