<svg width="25" height="25" viewBox="0 0 25 25" fill="none" xmlns="http://www.w3.org/2000/svg">
<rect x="6" y="8" width="19" height="15" fill="white"/>
<g clip-path="url(#clip0_133824_9)">
<path fill-rule="evenodd" clip-rule="evenodd" d="M0 0V25H25V0H0ZM18.9963 12.1428C19.236 12.1435 19.5085 12.1562 19.7134 12.1784C20.5479 12.2687 21.1978 12.6287 21.7507 13.3069C22.026 13.6447 22.1202 13.7925 22.1001 13.8557C22.0872 13.8965 21.8983 14.0318 21.2977 14.4304C20.7077 14.8222 20.5176 14.9395 20.4735 14.9395C20.4287 14.9395 20.3355 14.8436 20.2011 14.6593C19.9422 14.3046 19.6779 14.1427 19.2694 14.0887C18.8301 14.0305 18.436 14.169 18.243 14.4495C18.0779 14.6892 18.053 15.0749 18.1841 15.3551C18.3361 15.6797 18.6111 15.8592 19.665 16.3213C20.8804 16.8542 21.4963 17.219 21.9449 17.6717C22.428 18.1592 22.6727 18.7221 22.7479 19.5183C22.7846 19.9064 22.7397 20.3664 22.6287 20.7403C22.3564 21.657 21.6214 22.3283 20.5442 22.6442C20.2464 22.7316 19.9693 22.7837 19.6952 22.8038C19.2768 22.8346 18.6779 22.8176 18.3174 22.7652C17.4054 22.6323 16.3759 22.1016 15.8625 21.4999C15.6105 21.2045 15.2887 20.7183 15.2887 20.6328C15.2887 20.5915 15.3092 20.5681 15.3902 20.5166C15.6305 20.3639 17.0075 19.5768 17.0342 19.5768C17.0504 19.5768 17.1223 19.6615 17.194 19.7651C17.3564 19.9997 17.7559 20.4028 17.9589 20.5373C18.1248 20.6472 18.337 20.7354 18.5888 20.799C18.733 20.835 18.8094 20.8414 19.1241 20.8414C19.4457 20.8413 19.5116 20.8359 19.6555 20.7972C20.036 20.6948 20.333 20.4829 20.4588 20.2241C20.514 20.1123 20.5151 20.0983 20.5151 19.827V19.5458L20.4474 19.4116C20.2836 19.0865 19.9307 18.8634 18.8148 18.38C18.3022 18.158 17.6745 17.8449 17.4294 17.6891C16.87 17.3337 16.4823 16.9273 16.2279 16.4299C15.9748 15.9352 15.9371 15.7511 15.9365 15.0073C15.9359 14.425 15.9349 14.4322 16.0555 14.0605C16.1648 13.7233 16.3887 13.3466 16.6359 13.0838C17.1292 12.5595 17.8499 12.2225 18.6216 12.1554C18.7202 12.146 18.8525 12.1423 18.9963 12.1428ZM12.3566 12.2578C13.8427 12.2585 14.6949 12.2637 14.7085 12.2722C14.7342 12.2882 14.7375 12.4175 14.7375 13.243V14.1952L13.2546 14.2006L11.7717 14.206V18.4164C11.7717 20.7321 11.767 22.6405 11.7605 22.6574C11.7501 22.6857 11.636 22.6879 10.6711 22.6879H9.59344L9.58229 22.6444C9.57509 22.6205 9.56985 20.712 9.56973 18.4033L9.56937 14.2058L8.08652 14.2005L6.60356 14.1951V13.2541C6.60356 12.5078 6.60866 12.3079 6.62862 12.288C6.64902 12.267 7.40582 12.2616 10.6667 12.2584C11.2954 12.2578 11.8612 12.2575 12.3566 12.2578Z" fill="#0288D1"/>
</g>
<defs>
<clipPath id="clip0_133824_9">
<rect width="25" height="25" fill="white"/>
</clipPath>
</defs>
</svg>
